<svg xmlns="http://www.w3.org/2000/svg" width="1000" height="640" viewBox="0 0 1000 640" font-family="DejaVu Sans, Helvetica, Arial, sans-serif">
<rect width="1000" height="640" fill="#fcfcfb"/>
<text x="74" y="28" font-size="15" font-weight="bold" fill="#0b0b0b">On stock memory every card peaks for efficiency well below its stock cap -- at 220 W, 148 W, 130 W</text>
<text x="74" y="50" font-size="11" fill="#52514e">NOT a controlled comparison. The 4070 Ti SUPER was swept on Linux with caps set by nvidia-smi and power read from NVML; the other two by MXBM's own --tune on</text>
<text x="74" y="65" font-size="11" fill="#52514e">Windows, in another machine with different cooling. Cross-card distances carry all of that. What survives it is each curve's SHAPE and where its own peak sits.</text>
<text x="74" y="80" font-size="11" fill="#52514e">sol/s is CPU-verified solutions in every series. x is the cap the card was given, not what it drew.</text>
<line x1="74" y1="350" x2="966" y2="350" stroke="#e1e0d9" stroke-width="1"/>
<text x="66" y="353" font-size="10" fill="#898781" text-anchor="end">0</text>
<line x1="74" y1="286.6" x2="966" y2="286.6" stroke="#e1e0d9" stroke-width="1"/>
<text x="66" y="289.6" font-size="10" fill="#898781" text-anchor="end">20</text>
<line x1="74" y1="223.2" x2="966" y2="223.2" stroke="#e1e0d9" stroke-width="1"/>
<text x="66" y="226.2" font-size="10" fill="#898781" text-anchor="end">40</text>
<line x1="74" y1="159.8" x2="966" y2="159.8" stroke="#e1e0d9" stroke-width="1"/>
<text x="66" y="162.8" font-size="10" fill="#898781" text-anchor="end">60</text>
<line x1="74" y1="118" x2="74" y2="350" stroke="#c3c2b7" stroke-width="1"/>
<line x1="74" y1="350" x2="966" y2="350" stroke="#c3c2b7" stroke-width="1"/>
<line x1="117.5" y1="350" x2="117.5" y2="354" stroke="#c3c2b7" stroke-width="1"/>
<line x1="204.5" y1="350" x2="204.5" y2="354" stroke="#c3c2b7" stroke-width="1"/>
<line x1="291.6" y1="350" x2="291.6" y2="354" stroke="#c3c2b7" stroke-width="1"/>
<line x1="378.6" y1="350" x2="378.6" y2="354" stroke="#c3c2b7" stroke-width="1"/>
<line x1="465.6" y1="350" x2="465.6" y2="354" stroke="#c3c2b7" stroke-width="1"/>
<line x1="552.6" y1="350" x2="552.6" y2="354" stroke="#c3c2b7" stroke-width="1"/>
<line x1="639.7" y1="350" x2="639.7" y2="354" stroke="#c3c2b7" stroke-width="1"/>
<line x1="726.7" y1="350" x2="726.7" y2="354" stroke="#c3c2b7" stroke-width="1"/>
<line x1="813.7" y1="350" x2="813.7" y2="354" stroke="#c3c2b7" stroke-width="1"/>
<line x1="922.5" y1="350" x2="922.5" y2="354" stroke="#c3c2b7" stroke-width="1"/>
<text x="74" y="108" font-size="11" fill="#52514e">sol/s</text>
<polyline points="117.5,278.4 161.0,266.0 204.5,251.7 291.6,235.0 378.6,211.2 443.9,194.1 465.6,187.1 509.1,175.7 552.6,165.2 596.1,153.8 639.7,143.4 726.7,138.0 792.0,135.1 922.5,130.7" fill="none" stroke="#2a78d6" stroke-width="2" stroke-linejoin="round" stroke-linecap="round"/>
<circle cx="117.5" cy="278.4" r="6" fill="#fcfcfb"/>
<circle cx="117.5" cy="278.4" r="4" fill="#2a78d6"><title>RTX 4070 Ti SUPER, cap 100 W: 22.6 sol/s (drew 99.7 W)</title></circle>
<circle cx="161.0" cy="266.0" r="6" fill="#fcfcfb"/>
<circle cx="161.0" cy="266.0" r="4" fill="#2a78d6"><title>RTX 4070 Ti SUPER, cap 110 W: 26.5 sol/s (drew 109.6 W)</title></circle>
<circle cx="204.5" cy="251.7" r="6" fill="#fcfcfb"/>
<circle cx="204.5" cy="251.7" r="4" fill="#2a78d6"><title>RTX 4070 Ti SUPER, cap 120 W: 31 sol/s (drew 119.8 W)</title></circle>
<circle cx="291.6" cy="235.0" r="6" fill="#fcfcfb"/>
<circle cx="291.6" cy="235.0" r="4" fill="#2a78d6"><title>RTX 4070 Ti SUPER, cap 140 W: 36.3 sol/s (drew 139.7 W)</title></circle>
<circle cx="378.6" cy="211.2" r="6" fill="#fcfcfb"/>
<circle cx="378.6" cy="211.2" r="4" fill="#2a78d6"><title>RTX 4070 Ti SUPER, cap 160 W: 43.8 sol/s (drew 160 W)</title></circle>
<circle cx="443.9" cy="194.1" r="6" fill="#fcfcfb"/>
<circle cx="443.9" cy="194.1" r="4" fill="#2a78d6"><title>RTX 4070 Ti SUPER, cap 175 W: 49.2 sol/s (drew 175.2 W)</title></circle>
<circle cx="465.6" cy="187.1" r="6" fill="#fcfcfb"/>
<circle cx="465.6" cy="187.1" r="4" fill="#2a78d6"><title>RTX 4070 Ti SUPER, cap 180 W: 51.4 sol/s (drew 179.9 W)</title></circle>
<circle cx="509.1" cy="175.7" r="6" fill="#fcfcfb"/>
<circle cx="509.1" cy="175.7" r="4" fill="#2a78d6"><title>RTX 4070 Ti SUPER, cap 190 W: 55 sol/s (drew 189.8 W)</title></circle>
<circle cx="552.6" cy="165.2" r="6" fill="#fcfcfb"/>
<circle cx="552.6" cy="165.2" r="4" fill="#2a78d6"><title>RTX 4070 Ti SUPER, cap 200 W: 58.3 sol/s (drew 199.8 W)</title></circle>
<circle cx="596.1" cy="153.8" r="6" fill="#fcfcfb"/>
<circle cx="596.1" cy="153.8" r="4" fill="#2a78d6"><title>RTX 4070 Ti SUPER, cap 210 W: 61.9 sol/s (drew 209.7 W)</title></circle>
<circle cx="639.7" cy="143.4" r="6" fill="#fcfcfb"/>
<circle cx="639.7" cy="143.4" r="4" fill="#2a78d6"><title>RTX 4070 Ti SUPER, cap 220 W: 65.2 sol/s (drew 219.7 W)</title></circle>
<circle cx="726.7" cy="138.0" r="6" fill="#fcfcfb"/>
<circle cx="726.7" cy="138.0" r="4" fill="#2a78d6"><title>RTX 4070 Ti SUPER, cap 240 W: 66.9 sol/s (drew 239.6 W)</title></circle>
<circle cx="792.0" cy="135.1" r="6" fill="#fcfcfb"/>
<circle cx="792.0" cy="135.1" r="4" fill="#2a78d6"><title>RTX 4070 Ti SUPER, cap 255 W: 67.8 sol/s (drew 254.5 W)</title></circle>
<circle cx="922.5" cy="130.7" r="6" fill="#fcfcfb"/>
<circle cx="922.5" cy="130.7" r="4" fill="#2a78d6"><title>RTX 4070 Ti SUPER, cap 285 W: 69.2 sol/s (drew 284.4 W)</title></circle>
<polyline points="117.5,279.0 221.9,254.1 326.4,233.0 430.8,215.9 474.3,217.6 517.8,214.1 535.2,210.1 561.3,209.7 604.8,207.9 639.7,210.9" fill="none" stroke="#eb6834" stroke-width="2" stroke-linejoin="round" stroke-linecap="round"/>
<circle cx="117.5" cy="279.0" r="6" fill="#fcfcfb"/>
<circle cx="117.5" cy="279.0" r="4" fill="#eb6834"><title>RTX 4070 SUPER, cap 100 W: 22.41 sol/s (drew 97.2 W)</title></circle>
<circle cx="221.9" cy="254.1" r="6" fill="#fcfcfb"/>
<circle cx="221.9" cy="254.1" r="4" fill="#eb6834"><title>RTX 4070 SUPER, cap 124 W: 30.25 sol/s (drew 121.1 W)</title></circle>
<circle cx="326.4" cy="233.0" r="6" fill="#fcfcfb"/>
<circle cx="326.4" cy="233.0" r="4" fill="#eb6834"><title>RTX 4070 SUPER, cap 148 W: 36.93 sol/s (drew 144.3 W)</title></circle>
<circle cx="430.8" cy="215.9" r="6" fill="#fcfcfb"/>
<circle cx="430.8" cy="215.9" r="4" fill="#eb6834"><title>RTX 4070 SUPER, cap 172 W: 42.3 sol/s (drew 167.6 W)</title></circle>
<circle cx="474.3" cy="217.6" r="6" fill="#fcfcfb"/>
<circle cx="474.3" cy="217.6" r="4" fill="#eb6834"><title>RTX 4070 SUPER, cap 182 W: 41.77 sol/s (drew 176.9 W)</title></circle>
<circle cx="517.8" cy="214.1" r="6" fill="#fcfcfb"/>
<circle cx="517.8" cy="214.1" r="4" fill="#eb6834"><title>RTX 4070 SUPER, cap 192 W: 42.87 sol/s (drew 187.5 W)</title></circle>
<circle cx="535.2" cy="210.1" r="6" fill="#fcfcfb"/>
<circle cx="535.2" cy="210.1" r="4" fill="#eb6834"><title>RTX 4070 SUPER, cap 196 W: 44.13 sol/s (drew 191.1 W)</title></circle>
<circle cx="561.3" cy="209.7" r="6" fill="#fcfcfb"/>
<circle cx="561.3" cy="209.7" r="4" fill="#eb6834"><title>RTX 4070 SUPER, cap 202 W: 44.28 sol/s (drew 195.8 W)</title></circle>
<circle cx="604.8" cy="207.9" r="6" fill="#fcfcfb"/>
<circle cx="604.8" cy="207.9" r="4" fill="#eb6834"><title>RTX 4070 SUPER, cap 212 W: 44.83 sol/s (drew 205.3 W)</title></circle>
<circle cx="639.7" cy="210.9" r="6" fill="#fcfcfb"/>
<circle cx="639.7" cy="210.9" r="4" fill="#eb6834"><title>RTX 4070 SUPER, cap 220 W: 43.88 sol/s (drew 213.8 W)</title></circle>
<polyline points="117.5,312.9 204.5,295.7 248.0,289.4 291.6,287.6 335.1,284.1 378.6,283.3 465.6,280.5 552.6,279.0" fill="none" stroke="#1baf7a" stroke-width="2" stroke-linejoin="round" stroke-linecap="round"/>
<circle cx="117.5" cy="312.9" r="6" fill="#fcfcfb"/>
<circle cx="117.5" cy="312.9" r="4" fill="#1baf7a"><title>RTX 3060 Ti, cap 100 W: 11.71 sol/s (drew 98 W)</title></circle>
<circle cx="204.5" cy="295.7" r="6" fill="#fcfcfb"/>
<circle cx="204.5" cy="295.7" r="4" fill="#1baf7a"><title>RTX 3060 Ti, cap 120 W: 17.14 sol/s (drew 116.9 W)</title></circle>
<circle cx="248.0" cy="289.4" r="6" fill="#fcfcfb"/>
<circle cx="248.0" cy="289.4" r="4" fill="#1baf7a"><title>RTX 3060 Ti, cap 130 W: 19.11 sol/s (drew 126.8 W)</title></circle>
<circle cx="291.6" cy="287.6" r="6" fill="#fcfcfb"/>
<circle cx="291.6" cy="287.6" r="4" fill="#1baf7a"><title>RTX 3060 Ti, cap 140 W: 19.7 sol/s (drew 136.7 W)</title></circle>
<circle cx="335.1" cy="284.1" r="6" fill="#fcfcfb"/>
<circle cx="335.1" cy="284.1" r="4" fill="#1baf7a"><title>RTX 3060 Ti, cap 150 W: 20.79 sol/s (drew 146.5 W)</title></circle>
<circle cx="378.6" cy="283.3" r="6" fill="#fcfcfb"/>
<circle cx="378.6" cy="283.3" r="4" fill="#1baf7a"><title>RTX 3060 Ti, cap 160 W: 21.04 sol/s (drew 155.9 W)</title></circle>
<circle cx="465.6" cy="280.5" r="6" fill="#fcfcfb"/>
<circle cx="465.6" cy="280.5" r="4" fill="#1baf7a"><title>RTX 3060 Ti, cap 180 W: 21.92 sol/s (drew 175.9 W)</title></circle>
<circle cx="552.6" cy="279.0" r="6" fill="#fcfcfb"/>
<circle cx="552.6" cy="279.0" r="4" fill="#1baf7a"><title>RTX 3060 Ti, cap 200 W: 22.41 sol/s (drew 195.2 W)</title></circle>
<polyline points="117.5,268.8 161.0,259.7 204.5,256.2 221.9,255.4 326.4,254.4 430.8,254.3" fill="none" stroke="#eb6834" stroke-width="2" stroke-linejoin="round" stroke-linecap="round" stroke-dasharray="6 4"/>
<circle cx="117.5" cy="268.8" r="5.5" fill="#fcfcfb"/>
<circle cx="117.5" cy="268.8" r="3.5" fill="#eb6834"><title>RTX 4070 SUPER @ 5001 MHz, cap 100 W: 25.62 sol/s (drew 97.9 W)</title></circle>
<circle cx="161.0" cy="259.7" r="5.5" fill="#fcfcfb"/>
<circle cx="161.0" cy="259.7" r="3.5" fill="#eb6834"><title>RTX 4070 SUPER @ 5001 MHz, cap 110 W: 28.5 sol/s (drew 107 W)</title></circle>
<circle cx="204.5" cy="256.2" r="5.5" fill="#fcfcfb"/>
<circle cx="204.5" cy="256.2" r="3.5" fill="#eb6834"><title>RTX 4070 SUPER @ 5001 MHz, cap 120 W: 29.6 sol/s (drew 113.4 W)</title></circle>
<circle cx="221.9" cy="255.4" r="5.5" fill="#fcfcfb"/>
<circle cx="221.9" cy="255.4" r="3.5" fill="#eb6834"><title>RTX 4070 SUPER @ 5001 MHz, cap 124 W: 29.84 sol/s (drew 116.8 W)</title></circle>
<circle cx="326.4" cy="254.4" r="5.5" fill="#fcfcfb"/>
<circle cx="326.4" cy="254.4" r="3.5" fill="#eb6834"><title>RTX 4070 SUPER @ 5001 MHz, cap 148 W: 30.15 sol/s (drew 139 W)</title></circle>
<circle cx="430.8" cy="254.3" r="5.5" fill="#fcfcfb"/>
<circle cx="430.8" cy="254.3" r="3.5" fill="#eb6834"><title>RTX 4070 SUPER @ 5001 MHz, cap 172 W: 30.2 sol/s (drew 156.9 W)</title></circle>
<line x1="74" y1="517.2" x2="966" y2="517.2" stroke="#e1e0d9" stroke-width="1"/>
<text x="66" y="520.2" font-size="10" fill="#898781" text-anchor="end">0.15</text>
<line x1="74" y1="480.3" x2="966" y2="480.3" stroke="#e1e0d9" stroke-width="1"/>
<text x="66" y="483.3" font-size="10" fill="#898781" text-anchor="end">0.20</text>
<line x1="74" y1="443.4" x2="966" y2="443.4" stroke="#e1e0d9" stroke-width="1"/>
<text x="66" y="446.4" font-size="10" fill="#898781" text-anchor="end">0.25</text>
<line x1="74" y1="406.5" x2="966" y2="406.5" stroke="#e1e0d9" stroke-width="1"/>
<text x="66" y="409.5" font-size="10" fill="#898781" text-anchor="end">0.30</text>
<line x1="74" y1="400" x2="74" y2="552" stroke="#c3c2b7" stroke-width="1"/>
<line x1="74" y1="552" x2="966" y2="552" stroke="#c3c2b7" stroke-width="1"/>
<line x1="117.5" y1="552" x2="117.5" y2="556" stroke="#c3c2b7" stroke-width="1"/>
<text x="117.5" y="568" font-size="10" fill="#898781" text-anchor="middle">100 W</text>
<line x1="204.5" y1="552" x2="204.5" y2="556" stroke="#c3c2b7" stroke-width="1"/>
<text x="204.5" y="568" font-size="10" fill="#898781" text-anchor="middle">120 W</text>
<line x1="291.6" y1="552" x2="291.6" y2="556" stroke="#c3c2b7" stroke-width="1"/>
<text x="291.6" y="568" font-size="10" fill="#898781" text-anchor="middle">140 W</text>
<line x1="378.6" y1="552" x2="378.6" y2="556" stroke="#c3c2b7" stroke-width="1"/>
<text x="378.6" y="568" font-size="10" fill="#898781" text-anchor="middle">160 W</text>
<line x1="465.6" y1="552" x2="465.6" y2="556" stroke="#c3c2b7" stroke-width="1"/>
<text x="465.6" y="568" font-size="10" fill="#898781" text-anchor="middle">180 W</text>
<line x1="552.6" y1="552" x2="552.6" y2="556" stroke="#c3c2b7" stroke-width="1"/>
<text x="552.6" y="568" font-size="10" fill="#898781" text-anchor="middle">200 W</text>
<line x1="639.7" y1="552" x2="639.7" y2="556" stroke="#c3c2b7" stroke-width="1"/>
<text x="639.7" y="568" font-size="10" fill="#898781" text-anchor="middle">220 W</text>
<line x1="726.7" y1="552" x2="726.7" y2="556" stroke="#c3c2b7" stroke-width="1"/>
<text x="726.7" y="568" font-size="10" fill="#898781" text-anchor="middle">240 W</text>
<line x1="813.7" y1="552" x2="813.7" y2="556" stroke="#c3c2b7" stroke-width="1"/>
<text x="813.7" y="568" font-size="10" fill="#898781" text-anchor="middle">260 W</text>
<line x1="922.5" y1="552" x2="922.5" y2="556" stroke="#c3c2b7" stroke-width="1"/>
<text x="922.5" y="568" font-size="10" fill="#898781" text-anchor="middle">285 W</text>
<text x="74" y="390" font-size="11" fill="#52514e">sol/s per watt</text>
<polyline points="117.5,460.6 161.0,449.5 204.5,436.8 291.6,436.2 378.6,425.9 443.9,420.6 465.6,417.0 509.1,414.1 552.6,412.5 596.1,410.0 639.7,408.9 726.7,421.8 792.0,431.3 922.5,448.3" fill="none" stroke="#2a78d6" stroke-width="2" stroke-linejoin="round" stroke-linecap="round"/>
<circle cx="117.5" cy="460.6" r="6" fill="#fcfcfb"/>
<circle cx="117.5" cy="460.6" r="4" fill="#2a78d6"><title>RTX 4070 Ti SUPER, cap 100 W: 0.2267 sol/s per watt (drew 99.7 W)</title></circle>
<circle cx="161.0" cy="449.5" r="6" fill="#fcfcfb"/>
<circle cx="161.0" cy="449.5" r="4" fill="#2a78d6"><title>RTX 4070 Ti SUPER, cap 110 W: 0.2417 sol/s per watt (drew 109.6 W)</title></circle>
<circle cx="204.5" cy="436.8" r="6" fill="#fcfcfb"/>
<circle cx="204.5" cy="436.8" r="4" fill="#2a78d6"><title>RTX 4070 Ti SUPER, cap 120 W: 0.2589 sol/s per watt (drew 119.8 W)</title></circle>
<circle cx="291.6" cy="436.2" r="6" fill="#fcfcfb"/>
<circle cx="291.6" cy="436.2" r="4" fill="#2a78d6"><title>RTX 4070 Ti SUPER, cap 140 W: 0.2598 sol/s per watt (drew 139.7 W)</title></circle>
<circle cx="378.6" cy="425.9" r="6" fill="#fcfcfb"/>
<circle cx="378.6" cy="425.9" r="4" fill="#2a78d6"><title>RTX 4070 Ti SUPER, cap 160 W: 0.2737 sol/s per watt (drew 160 W)</title></circle>
<circle cx="443.9" cy="420.6" r="6" fill="#fcfcfb"/>
<circle cx="443.9" cy="420.6" r="4" fill="#2a78d6"><title>RTX 4070 Ti SUPER, cap 175 W: 0.2809 sol/s per watt (drew 175.2 W)</title></circle>
<circle cx="465.6" cy="417.0" r="6" fill="#fcfcfb"/>
<circle cx="465.6" cy="417.0" r="4" fill="#2a78d6"><title>RTX 4070 Ti SUPER, cap 180 W: 0.2857 sol/s per watt (drew 179.9 W)</title></circle>
<circle cx="509.1" cy="414.1" r="6" fill="#fcfcfb"/>
<circle cx="509.1" cy="414.1" r="4" fill="#2a78d6"><title>RTX 4070 Ti SUPER, cap 190 W: 0.2897 sol/s per watt (drew 189.8 W)</title></circle>
<circle cx="552.6" cy="412.5" r="6" fill="#fcfcfb"/>
<circle cx="552.6" cy="412.5" r="4" fill="#2a78d6"><title>RTX 4070 Ti SUPER, cap 200 W: 0.2919 sol/s per watt (drew 199.8 W)</title></circle>
<circle cx="596.1" cy="410.0" r="6" fill="#fcfcfb"/>
<circle cx="596.1" cy="410.0" r="4" fill="#2a78d6"><title>RTX 4070 Ti SUPER, cap 210 W: 0.2952 sol/s per watt (drew 209.7 W)</title></circle>
<circle cx="639.7" cy="408.9" r="6" fill="#fcfcfb"/>
<circle cx="639.7" cy="408.9" r="4" fill="#2a78d6"><title>RTX 4070 Ti SUPER, cap 220 W: 0.2968 sol/s per watt (drew 219.7 W)</title></circle>
<circle cx="726.7" cy="421.8" r="6" fill="#fcfcfb"/>
<circle cx="726.7" cy="421.8" r="4" fill="#2a78d6"><title>RTX 4070 Ti SUPER, cap 240 W: 0.2793 sol/s per watt (drew 239.6 W)</title></circle>
<circle cx="792.0" cy="431.3" r="6" fill="#fcfcfb"/>
<circle cx="792.0" cy="431.3" r="4" fill="#2a78d6"><title>RTX 4070 Ti SUPER, cap 255 W: 0.2664 sol/s per watt (drew 254.5 W)</title></circle>
<circle cx="922.5" cy="448.3" r="6" fill="#fcfcfb"/>
<circle cx="922.5" cy="448.3" r="4" fill="#2a78d6"><title>RTX 4070 Ti SUPER, cap 285 W: 0.2433 sol/s per watt (drew 284.4 W)</title></circle>
<polyline points="117.5,457.8 221.9,443.5 326.4,439.0 430.8,441.6 474.3,453.6 517.8,459.1 535.2,457.5 561.3,460.9 604.8,466.8 639.7,476.4" fill="none" stroke="#eb6834" stroke-width="2" stroke-linejoin="round" stroke-linecap="round"/>
<circle cx="117.5" cy="457.8" r="6" fill="#fcfcfb"/>
<circle cx="117.5" cy="457.8" r="4" fill="#eb6834"><title>RTX 4070 SUPER, cap 100 W: 0.2305 sol/s per watt (drew 97.2 W)</title></circle>
<circle cx="221.9" cy="443.5" r="6" fill="#fcfcfb"/>
<circle cx="221.9" cy="443.5" r="4" fill="#eb6834"><title>RTX 4070 SUPER, cap 124 W: 0.2498 sol/s per watt (drew 121.1 W)</title></circle>
<circle cx="326.4" cy="439.0" r="6" fill="#fcfcfb"/>
<circle cx="326.4" cy="439.0" r="4" fill="#eb6834"><title>RTX 4070 SUPER, cap 148 W: 0.2559 sol/s per watt (drew 144.3 W)</title></circle>
<circle cx="430.8" cy="441.6" r="6" fill="#fcfcfb"/>
<circle cx="430.8" cy="441.6" r="4" fill="#eb6834"><title>RTX 4070 SUPER, cap 172 W: 0.2524 sol/s per watt (drew 167.6 W)</title></circle>
<circle cx="474.3" cy="453.6" r="6" fill="#fcfcfb"/>
<circle cx="474.3" cy="453.6" r="4" fill="#eb6834"><title>RTX 4070 SUPER, cap 182 W: 0.2361 sol/s per watt (drew 176.9 W)</title></circle>
<circle cx="517.8" cy="459.1" r="6" fill="#fcfcfb"/>
<circle cx="517.8" cy="459.1" r="4" fill="#eb6834"><title>RTX 4070 SUPER, cap 192 W: 0.2287 sol/s per watt (drew 187.5 W)</title></circle>
<circle cx="535.2" cy="457.5" r="6" fill="#fcfcfb"/>
<circle cx="535.2" cy="457.5" r="4" fill="#eb6834"><title>RTX 4070 SUPER, cap 196 W: 0.2309 sol/s per watt (drew 191.1 W)</title></circle>
<circle cx="561.3" cy="460.9" r="6" fill="#fcfcfb"/>
<circle cx="561.3" cy="460.9" r="4" fill="#eb6834"><title>RTX 4070 SUPER, cap 202 W: 0.2262 sol/s per watt (drew 195.8 W)</title></circle>
<circle cx="604.8" cy="466.8" r="6" fill="#fcfcfb"/>
<circle cx="604.8" cy="466.8" r="4" fill="#eb6834"><title>RTX 4070 SUPER, cap 212 W: 0.2183 sol/s per watt (drew 205.3 W)</title></circle>
<circle cx="639.7" cy="476.4" r="6" fill="#fcfcfb"/>
<circle cx="639.7" cy="476.4" r="4" fill="#eb6834"><title>RTX 4070 SUPER, cap 220 W: 0.2053 sol/s per watt (drew 213.8 W)</title></circle>
<polyline points="117.5,539.6 204.5,519.6 248.0,516.7 291.6,521.5 335.1,523.1 378.6,528.2 465.6,535.9 552.6,543.1" fill="none" stroke="#1baf7a" stroke-width="2" stroke-linejoin="round" stroke-linecap="round"/>
<circle cx="117.5" cy="539.6" r="6" fill="#fcfcfb"/>
<circle cx="117.5" cy="539.6" r="4" fill="#1baf7a"><title>RTX 3060 Ti, cap 100 W: 0.1196 sol/s per watt (drew 98 W)</title></circle>
<circle cx="204.5" cy="519.6" r="6" fill="#fcfcfb"/>
<circle cx="204.5" cy="519.6" r="4" fill="#1baf7a"><title>RTX 3060 Ti, cap 120 W: 0.1467 sol/s per watt (drew 116.9 W)</title></circle>
<circle cx="248.0" cy="516.7" r="6" fill="#fcfcfb"/>
<circle cx="248.0" cy="516.7" r="4" fill="#1baf7a"><title>RTX 3060 Ti, cap 130 W: 0.1506 sol/s per watt (drew 126.8 W)</title></circle>
<circle cx="291.6" cy="521.5" r="6" fill="#fcfcfb"/>
<circle cx="291.6" cy="521.5" r="4" fill="#1baf7a"><title>RTX 3060 Ti, cap 140 W: 0.1442 sol/s per watt (drew 136.7 W)</title></circle>
<circle cx="335.1" cy="523.1" r="6" fill="#fcfcfb"/>
<circle cx="335.1" cy="523.1" r="4" fill="#1baf7a"><title>RTX 3060 Ti, cap 150 W: 0.1419 sol/s per watt (drew 146.5 W)</title></circle>
<circle cx="378.6" cy="528.2" r="6" fill="#fcfcfb"/>
<circle cx="378.6" cy="528.2" r="4" fill="#1baf7a"><title>RTX 3060 Ti, cap 160 W: 0.135 sol/s per watt (drew 155.9 W)</title></circle>
<circle cx="465.6" cy="535.9" r="6" fill="#fcfcfb"/>
<circle cx="465.6" cy="535.9" r="4" fill="#1baf7a"><title>RTX 3060 Ti, cap 180 W: 0.1246 sol/s per watt (drew 175.9 W)</title></circle>
<circle cx="552.6" cy="543.1" r="6" fill="#fcfcfb"/>
<circle cx="552.6" cy="543.1" r="4" fill="#1baf7a"><title>RTX 3060 Ti, cap 200 W: 0.1148 sol/s per watt (drew 195.2 W)</title></circle>
<polyline points="117.5,434.8 161.0,431.4 204.5,435.3 221.9,439.3 326.4,467.8 430.8,485.8" fill="none" stroke="#eb6834" stroke-width="2" stroke-linejoin="round" stroke-linecap="round" stroke-dasharray="6 4"/>
<circle cx="117.5" cy="434.8" r="5.5" fill="#fcfcfb"/>
<circle cx="117.5" cy="434.8" r="3.5" fill="#eb6834"><title>RTX 4070 SUPER @ 5001 MHz, cap 100 W: 0.2616 sol/s per watt (drew 97.9 W)</title></circle>
<circle cx="161.0" cy="431.4" r="5.5" fill="#fcfcfb"/>
<circle cx="161.0" cy="431.4" r="3.5" fill="#eb6834"><title>RTX 4070 SUPER @ 5001 MHz, cap 110 W: 0.2663 sol/s per watt (drew 107 W)</title></circle>
<circle cx="204.5" cy="435.3" r="5.5" fill="#fcfcfb"/>
<circle cx="204.5" cy="435.3" r="3.5" fill="#eb6834"><title>RTX 4070 SUPER @ 5001 MHz, cap 120 W: 0.2609 sol/s per watt (drew 113.4 W)</title></circle>
<circle cx="221.9" cy="439.3" r="5.5" fill="#fcfcfb"/>
<circle cx="221.9" cy="439.3" r="3.5" fill="#eb6834"><title>RTX 4070 SUPER @ 5001 MHz, cap 124 W: 0.2555 sol/s per watt (drew 116.8 W)</title></circle>
<circle cx="326.4" cy="467.8" r="5.5" fill="#fcfcfb"/>
<circle cx="326.4" cy="467.8" r="3.5" fill="#eb6834"><title>RTX 4070 SUPER @ 5001 MHz, cap 148 W: 0.2169 sol/s per watt (drew 139 W)</title></circle>
<circle cx="430.8" cy="485.8" r="5.5" fill="#fcfcfb"/>
<circle cx="430.8" cy="485.8" r="3.5" fill="#eb6834"><title>RTX 4070 SUPER @ 5001 MHz, cap 172 W: 0.1925 sol/s per watt (drew 156.9 W)</title></circle>
<text x="639.7" y="397.9" font-size="10" font-weight="bold" fill="#2a78d6" text-anchor="middle">0.2968</text>
<text x="326.4" y="428.0" font-size="10" font-weight="bold" fill="#eb6834" text-anchor="middle">0.2559</text>
<text x="248.0" y="505.7" font-size="10" font-weight="bold" fill="#1baf7a" text-anchor="middle">0.1506</text>
<text x="161.0" y="420.4" font-size="10" font-weight="bold" fill="#eb6834" text-anchor="middle">0.2663</text>
<line x1="88" y1="132" x2="110" y2="132" stroke="#2a78d6" stroke-width="2"/>
<circle cx="99" cy="132" r="6" fill="#fcfcfb"/>
<circle cx="99" cy="132" r="4" fill="#2a78d6"></circle>
<text x="118" y="136" font-size="11" fill="#52514e">RTX 4070 Ti SUPER  (100-285 W)</text>
<line x1="88" y1="148" x2="110" y2="148" stroke="#eb6834" stroke-width="2"/>
<circle cx="99" cy="148" r="6" fill="#fcfcfb"/>
<circle cx="99" cy="148" r="4" fill="#eb6834"></circle>
<text x="118" y="152" font-size="11" fill="#52514e">RTX 4070 SUPER  (100-220 W)</text>
<line x1="88" y1="164" x2="110" y2="164" stroke="#1baf7a" stroke-width="2"/>
<circle cx="99" cy="164" r="6" fill="#fcfcfb"/>
<circle cx="99" cy="164" r="4" fill="#1baf7a"></circle>
<text x="118" y="168" font-size="11" fill="#52514e">RTX 3060 Ti  (100-200 W)</text>
<line x1="88" y1="180" x2="110" y2="180" stroke="#eb6834" stroke-width="2" stroke-dasharray="6 4"/>
<circle cx="99" cy="180" r="5.5" fill="#fcfcfb"/>
<circle cx="99" cy="180" r="3.5" fill="#eb6834"></circle>
<text x="118" y="184" font-size="11" fill="#52514e">RTX 4070 SUPER @ 5001 MHz  (100-172 W)</text>
<text x="74" y="598" font-size="10" fill="#898781">The dashed trace is the SAME 4070 SUPER at its 5001 MHz memory rung: flat from 172 W down to 120 W, because the memory system binds and the cap does not.</text>
<text x="74" y="614" font-size="10" fill="#898781">Generated from the tables in docs/performance.md by docs/tools/plot_cards.py. Contribute a card with benchmarks/collect_report.sh.</text>
</svg>
