<svg xmlns="http://www.w3.org/2000/svg" width="1000" height="720" viewBox="0 0 1000 720" font-family="DejaVu Sans, Helvetica, Arial, sans-serif">
<rect width="1000" height="720" fill="#fcfcfb"/>
<text x="74" y="28" font-size="15" font-weight="bold" fill="#0b0b0b">At the same cap, MXBM leads on speed and efficiency between 212 W and 257 W -- and only there</text>
<text x="74" y="48" font-size="11" fill="#52514e">RTX 4070 Ti SUPER, one session, runs interleaved and alternating. Caps set externally with nvidia-smi so neither miner's own</text>
<text x="74" y="63" font-size="11" fill="#52514e">overclock code is a variable; power sampled from NVML for both, never from a miner's own stats block. 2 repeats per point.</text>
<text x="74" y="78" font-size="11" fill="#52514e">Each miner's sol/s is its OWN definition and the two are not strictly comparable. The watts are one instrument for both.</text>
<rect x="565.3" y="104" width="212.4" height="196" fill="#2a78d6" fill-opacity="0.085"/>
<rect x="565.3" y="352" width="212.4" height="134" fill="#2a78d6" fill-opacity="0.085"/>
<rect x="565.3" y="538" width="212.4" height="86" fill="#2a78d6" fill-opacity="0.085"/>
<line x1="565.3" y1="104" x2="565.3" y2="300" stroke="#2a78d6" stroke-width="1" stroke-dasharray="3 3"/>
<line x1="565.3" y1="352" x2="565.3" y2="486" stroke="#2a78d6" stroke-width="1" stroke-dasharray="3 3"/>
<line x1="565.3" y1="538" x2="565.3" y2="624" stroke="#2a78d6" stroke-width="1" stroke-dasharray="3 3"/>
<line x1="777.7" y1="104" x2="777.7" y2="300" stroke="#2a78d6" stroke-width="1" stroke-dasharray="3 3"/>
<line x1="777.7" y1="352" x2="777.7" y2="486" stroke="#2a78d6" stroke-width="1" stroke-dasharray="3 3"/>
<line x1="777.7" y1="538" x2="777.7" y2="624" stroke="#2a78d6" stroke-width="1" stroke-dasharray="3 3"/>
<text x="671.5" y="121" font-size="11" font-weight="bold" fill="#0b0b0b" text-anchor="middle">MXBM ahead on BOTH, 212-257 W</text>
<line x1="74" y1="265.8" x2="966" y2="265.8" stroke="#e1e0d9" stroke-width="1"/>
<text x="66" y="268.8" font-size="10" fill="#898781" text-anchor="end">30</text>
<line x1="74" y1="214.6" x2="966" y2="214.6" stroke="#e1e0d9" stroke-width="1"/>
<text x="66" y="217.6" font-size="10" fill="#898781" text-anchor="end">40</text>
<line x1="74" y1="163.5" x2="966" y2="163.5" stroke="#e1e0d9" stroke-width="1"/>
<text x="66" y="166.5" font-size="10" fill="#898781" text-anchor="end">50</text>
<line x1="74" y1="112.4" x2="966" y2="112.4" stroke="#e1e0d9" stroke-width="1"/>
<text x="66" y="115.4" font-size="10" fill="#898781" text-anchor="end">60</text>
<line x1="74" y1="104" x2="74" y2="300" stroke="#c3c2b7" stroke-width="1"/>
<line x1="74" y1="300" x2="966" y2="300" stroke="#c3c2b7" stroke-width="1"/>
<line x1="130.6" y1="300" x2="130.6" y2="304" stroke="#c3c2b7" stroke-width="1"/>
<line x1="225.0" y1="300" x2="225.0" y2="304" stroke="#c3c2b7" stroke-width="1"/>
<line x1="319.4" y1="300" x2="319.4" y2="304" stroke="#c3c2b7" stroke-width="1"/>
<line x1="390.2" y1="300" x2="390.2" y2="304" stroke="#c3c2b7" stroke-width="1"/>
<line x1="413.8" y1="300" x2="413.8" y2="304" stroke="#c3c2b7" stroke-width="1"/>
<line x1="461.0" y1="300" x2="461.0" y2="304" stroke="#c3c2b7" stroke-width="1"/>
<line x1="508.2" y1="300" x2="508.2" y2="304" stroke="#c3c2b7" stroke-width="1"/>
<line x1="555.4" y1="300" x2="555.4" y2="304" stroke="#c3c2b7" stroke-width="1"/>
<line x1="602.6" y1="300" x2="602.6" y2="304" stroke="#c3c2b7" stroke-width="1"/>
<line x1="697.0" y1="300" x2="697.0" y2="304" stroke="#c3c2b7" stroke-width="1"/>
<line x1="767.8" y1="300" x2="767.8" y2="304" stroke="#c3c2b7" stroke-width="1"/>
<line x1="909.4" y1="300" x2="909.4" y2="304" stroke="#c3c2b7" stroke-width="1"/>
<text x="74" y="94" font-size="11" fill="#52514e">sol/s</text>
<polyline points="130.6,247.9 225.0,211.6 319.4,170.7 390.2,153.3 413.8,150.0 461.0,146.9 508.2,141.8 555.4,141.3 602.6,141.3 697.0,146.7 767.8,145.9 909.4,145.1" fill="none" stroke="#eb6834" stroke-width="2" stroke-linejoin="round" stroke-linecap="round"/>
<circle cx="130.6" cy="247.9" r="6" fill="#fcfcfb"/>
<circle cx="130.6" cy="247.9" r="4" fill="#eb6834"><title>cap 120 W: 33.5 (drew 119.5 W)</title></circle>
<circle cx="225.0" cy="211.6" r="6" fill="#fcfcfb"/>
<circle cx="225.0" cy="211.6" r="4" fill="#eb6834"><title>cap 140 W: 40.6 (drew 139.6 W)</title></circle>
<circle cx="319.4" cy="170.7" r="6" fill="#fcfcfb"/>
<circle cx="319.4" cy="170.7" r="4" fill="#eb6834"><title>cap 160 W: 48.6 (drew 160.1 W)</title></circle>
<circle cx="390.2" cy="153.3" r="6" fill="#fcfcfb"/>
<circle cx="390.2" cy="153.3" r="4" fill="#eb6834"><title>cap 175 W: 52 (drew 174.6 W)</title></circle>
<circle cx="413.8" cy="150.0" r="6" fill="#fcfcfb"/>
<circle cx="413.8" cy="150.0" r="4" fill="#eb6834"><title>cap 180 W: 52.65 (drew 179.6 W)</title></circle>
<circle cx="461.0" cy="146.9" r="6" fill="#fcfcfb"/>
<circle cx="461.0" cy="146.9" r="4" fill="#eb6834"><title>cap 190 W: 53.25 (drew 189.6 W)</title></circle>
<circle cx="508.2" cy="141.8" r="6" fill="#fcfcfb"/>
<circle cx="508.2" cy="141.8" r="4" fill="#eb6834"><title>cap 200 W: 54.25 (drew 199.6 W)</title></circle>
<circle cx="555.4" cy="141.3" r="6" fill="#fcfcfb"/>
<circle cx="555.4" cy="141.3" r="4" fill="#eb6834"><title>cap 210 W: 54.35 (drew 209.4 W)</title></circle>
<circle cx="602.6" cy="141.3" r="6" fill="#fcfcfb"/>
<circle cx="602.6" cy="141.3" r="4" fill="#eb6834"><title>cap 220 W: 54.35 (drew 219.6 W)</title></circle>
<circle cx="697.0" cy="146.7" r="6" fill="#fcfcfb"/>
<circle cx="697.0" cy="146.7" r="4" fill="#eb6834"><title>cap 240 W: 53.3 (drew 235.7 W)</title></circle>
<circle cx="767.8" cy="145.9" r="6" fill="#fcfcfb"/>
<circle cx="767.8" cy="145.9" r="4" fill="#eb6834"><title>cap 255 W: 53.45 (drew 235.8 W)</title></circle>
<circle cx="909.4" cy="145.1" r="6" fill="#fcfcfb"/>
<circle cx="909.4" cy="145.1" r="4" fill="#eb6834"><title>cap 285 W: 53.6 (drew 235.8 W)</title></circle>
<polyline points="130.6,284.7 225.0,252.2 319.4,218.0 390.2,194.5 413.8,183.7 461.0,169.9 508.2,152.6 555.4,142.3 602.6,135.9 697.0,126.7 767.8,122.7 909.4,116.8" fill="none" stroke="#2a78d6" stroke-width="2" stroke-linejoin="round" stroke-linecap="round"/>
<circle cx="130.6" cy="284.7" r="6" fill="#fcfcfb"/>
<circle cx="130.6" cy="284.7" r="4" fill="#2a78d6"><title>cap 120 W: 26.3 (drew 119.8 W)</title></circle>
<circle cx="225.0" cy="252.2" r="6" fill="#fcfcfb"/>
<circle cx="225.0" cy="252.2" r="4" fill="#2a78d6"><title>cap 140 W: 32.65 (drew 139.9 W)</title></circle>
<circle cx="319.4" cy="218.0" r="6" fill="#fcfcfb"/>
<circle cx="319.4" cy="218.0" r="4" fill="#2a78d6"><title>cap 160 W: 39.35 (drew 160.1 W)</title></circle>
<circle cx="390.2" cy="194.5" r="6" fill="#fcfcfb"/>
<circle cx="390.2" cy="194.5" r="4" fill="#2a78d6"><title>cap 175 W: 43.95 (drew 175.2 W)</title></circle>
<circle cx="413.8" cy="183.7" r="6" fill="#fcfcfb"/>
<circle cx="413.8" cy="183.7" r="4" fill="#2a78d6"><title>cap 180 W: 46.05 (drew 180 W)</title></circle>
<circle cx="461.0" cy="169.9" r="6" fill="#fcfcfb"/>
<circle cx="461.0" cy="169.9" r="4" fill="#2a78d6"><title>cap 190 W: 48.75 (drew 189.9 W)</title></circle>
<circle cx="508.2" cy="152.6" r="6" fill="#fcfcfb"/>
<circle cx="508.2" cy="152.6" r="4" fill="#2a78d6"><title>cap 200 W: 52.15 (drew 199.8 W)</title></circle>
<circle cx="555.4" cy="142.3" r="6" fill="#fcfcfb"/>
<circle cx="555.4" cy="142.3" r="4" fill="#2a78d6"><title>cap 210 W: 54.15 (drew 209.6 W)</title></circle>
<circle cx="602.6" cy="135.9" r="6" fill="#fcfcfb"/>
<circle cx="602.6" cy="135.9" r="4" fill="#2a78d6"><title>cap 220 W: 55.4 (drew 219.5 W)</title></circle>
<circle cx="697.0" cy="126.7" r="6" fill="#fcfcfb"/>
<circle cx="697.0" cy="126.7" r="4" fill="#2a78d6"><title>cap 240 W: 57.2 (drew 239.4 W)</title></circle>
<circle cx="767.8" cy="122.7" r="6" fill="#fcfcfb"/>
<circle cx="767.8" cy="122.7" r="4" fill="#2a78d6"><title>cap 255 W: 58 (drew 254.2 W)</title></circle>
<circle cx="909.4" cy="116.8" r="6" fill="#fcfcfb"/>
<circle cx="909.4" cy="116.8" r="4" fill="#2a78d6"><title>cap 285 W: 59.15 (drew 284.2 W)</title></circle>
<line x1="74" y1="458.5" x2="966" y2="458.5" stroke="#e1e0d9" stroke-width="1"/>
<text x="66" y="461.5" font-size="10" fill="#898781" text-anchor="end">0.23</text>
<line x1="74" y1="428.4" x2="966" y2="428.4" stroke="#e1e0d9" stroke-width="1"/>
<text x="66" y="431.4" font-size="10" fill="#898781" text-anchor="end">0.25</text>
<line x1="74" y1="398.4" x2="966" y2="398.4" stroke="#e1e0d9" stroke-width="1"/>
<text x="66" y="401.4" font-size="10" fill="#898781" text-anchor="end">0.28</text>
<line x1="74" y1="368.3" x2="966" y2="368.3" stroke="#e1e0d9" stroke-width="1"/>
<text x="66" y="371.3" font-size="10" fill="#898781" text-anchor="end">0.30</text>
<line x1="74" y1="352" x2="74" y2="486" stroke="#c3c2b7" stroke-width="1"/>
<line x1="74" y1="486" x2="966" y2="486" stroke="#c3c2b7" stroke-width="1"/>
<line x1="130.6" y1="486" x2="130.6" y2="490" stroke="#c3c2b7" stroke-width="1"/>
<line x1="225.0" y1="486" x2="225.0" y2="490" stroke="#c3c2b7" stroke-width="1"/>
<line x1="319.4" y1="486" x2="319.4" y2="490" stroke="#c3c2b7" stroke-width="1"/>
<line x1="390.2" y1="486" x2="390.2" y2="490" stroke="#c3c2b7" stroke-width="1"/>
<line x1="413.8" y1="486" x2="413.8" y2="490" stroke="#c3c2b7" stroke-width="1"/>
<line x1="461.0" y1="486" x2="461.0" y2="490" stroke="#c3c2b7" stroke-width="1"/>
<line x1="508.2" y1="486" x2="508.2" y2="490" stroke="#c3c2b7" stroke-width="1"/>
<line x1="555.4" y1="486" x2="555.4" y2="490" stroke="#c3c2b7" stroke-width="1"/>
<line x1="602.6" y1="486" x2="602.6" y2="490" stroke="#c3c2b7" stroke-width="1"/>
<line x1="697.0" y1="486" x2="697.0" y2="490" stroke="#c3c2b7" stroke-width="1"/>
<line x1="767.8" y1="486" x2="767.8" y2="490" stroke="#c3c2b7" stroke-width="1"/>
<line x1="909.4" y1="486" x2="909.4" y2="490" stroke="#c3c2b7" stroke-width="1"/>
<text x="74" y="342" font-size="11" fill="#52514e">sol/s per watt</text>
<polyline points="130.6,391.8 225.0,379.4 319.4,364.0 390.2,371.0 413.8,376.5 461.0,391.3 508.2,402.2 555.4,417.0 602.6,431.3 697.0,457.2 767.8,456.4 909.4,455.6" fill="none" stroke="#eb6834" stroke-width="2" stroke-linejoin="round" stroke-linecap="round"/>
<circle cx="130.6" cy="391.8" r="6" fill="#fcfcfb"/>
<circle cx="130.6" cy="391.8" r="4" fill="#eb6834"><title>cap 120 W: 0.2805 (drew 119.5 W)</title></circle>
<circle cx="225.0" cy="379.4" r="6" fill="#fcfcfb"/>
<circle cx="225.0" cy="379.4" r="4" fill="#eb6834"><title>cap 140 W: 0.2908 (drew 139.6 W)</title></circle>
<circle cx="319.4" cy="364.0" r="6" fill="#fcfcfb"/>
<circle cx="319.4" cy="364.0" r="4" fill="#eb6834"><title>cap 160 W: 0.3036 (drew 160.1 W)</title></circle>
<circle cx="390.2" cy="371.0" r="6" fill="#fcfcfb"/>
<circle cx="390.2" cy="371.0" r="4" fill="#eb6834"><title>cap 175 W: 0.2978 (drew 174.6 W)</title></circle>
<circle cx="413.8" cy="376.5" r="6" fill="#fcfcfb"/>
<circle cx="413.8" cy="376.5" r="4" fill="#eb6834"><title>cap 180 W: 0.2932 (drew 179.6 W)</title></circle>
<circle cx="461.0" cy="391.3" r="6" fill="#fcfcfb"/>
<circle cx="461.0" cy="391.3" r="4" fill="#eb6834"><title>cap 190 W: 0.2809 (drew 189.6 W)</title></circle>
<circle cx="508.2" cy="402.2" r="6" fill="#fcfcfb"/>
<circle cx="508.2" cy="402.2" r="4" fill="#eb6834"><title>cap 200 W: 0.2718 (drew 199.6 W)</title></circle>
<circle cx="555.4" cy="417.0" r="6" fill="#fcfcfb"/>
<circle cx="555.4" cy="417.0" r="4" fill="#eb6834"><title>cap 210 W: 0.2595 (drew 209.4 W)</title></circle>
<circle cx="602.6" cy="431.3" r="6" fill="#fcfcfb"/>
<circle cx="602.6" cy="431.3" r="4" fill="#eb6834"><title>cap 220 W: 0.2476 (drew 219.6 W)</title></circle>
<circle cx="697.0" cy="457.2" r="6" fill="#fcfcfb"/>
<circle cx="697.0" cy="457.2" r="4" fill="#eb6834"><title>cap 240 W: 0.2261 (drew 235.7 W)</title></circle>
<circle cx="767.8" cy="456.4" r="6" fill="#fcfcfb"/>
<circle cx="767.8" cy="456.4" r="4" fill="#eb6834"><title>cap 255 W: 0.2267 (drew 235.8 W)</title></circle>
<circle cx="909.4" cy="455.6" r="6" fill="#fcfcfb"/>
<circle cx="909.4" cy="455.6" r="4" fill="#eb6834"><title>cap 285 W: 0.2274 (drew 235.8 W)</title></circle>
<polyline points="130.6,465.0 225.0,448.4 319.4,433.5 390.2,427.4 413.8,421.5 461.0,420.4 508.2,415.1 555.4,418.5 602.6,425.5 697.0,441.8 767.8,454.6 909.4,478.8" fill="none" stroke="#2a78d6" stroke-width="2" stroke-linejoin="round" stroke-linecap="round"/>
<circle cx="130.6" cy="465.0" r="6" fill="#fcfcfb"/>
<circle cx="130.6" cy="465.0" r="4" fill="#2a78d6"><title>cap 120 W: 0.2196 (drew 119.8 W)</title></circle>
<circle cx="225.0" cy="448.4" r="6" fill="#fcfcfb"/>
<circle cx="225.0" cy="448.4" r="4" fill="#2a78d6"><title>cap 140 W: 0.2334 (drew 139.9 W)</title></circle>
<circle cx="319.4" cy="433.5" r="6" fill="#fcfcfb"/>
<circle cx="319.4" cy="433.5" r="4" fill="#2a78d6"><title>cap 160 W: 0.2458 (drew 160.1 W)</title></circle>
<circle cx="390.2" cy="427.4" r="6" fill="#fcfcfb"/>
<circle cx="390.2" cy="427.4" r="4" fill="#2a78d6"><title>cap 175 W: 0.2509 (drew 175.2 W)</title></circle>
<circle cx="413.8" cy="421.5" r="6" fill="#fcfcfb"/>
<circle cx="413.8" cy="421.5" r="4" fill="#2a78d6"><title>cap 180 W: 0.2558 (drew 180 W)</title></circle>
<circle cx="461.0" cy="420.4" r="6" fill="#fcfcfb"/>
<circle cx="461.0" cy="420.4" r="4" fill="#2a78d6"><title>cap 190 W: 0.2567 (drew 189.9 W)</title></circle>
<circle cx="508.2" cy="415.1" r="6" fill="#fcfcfb"/>
<circle cx="508.2" cy="415.1" r="4" fill="#2a78d6"><title>cap 200 W: 0.2611 (drew 199.8 W)</title></circle>
<circle cx="555.4" cy="418.5" r="6" fill="#fcfcfb"/>
<circle cx="555.4" cy="418.5" r="4" fill="#2a78d6"><title>cap 210 W: 0.2583 (drew 209.6 W)</title></circle>
<circle cx="602.6" cy="425.5" r="6" fill="#fcfcfb"/>
<circle cx="602.6" cy="425.5" r="4" fill="#2a78d6"><title>cap 220 W: 0.2524 (drew 219.5 W)</title></circle>
<circle cx="697.0" cy="441.8" r="6" fill="#fcfcfb"/>
<circle cx="697.0" cy="441.8" r="4" fill="#2a78d6"><title>cap 240 W: 0.2389 (drew 239.4 W)</title></circle>
<circle cx="767.8" cy="454.6" r="6" fill="#fcfcfb"/>
<circle cx="767.8" cy="454.6" r="4" fill="#2a78d6"><title>cap 255 W: 0.2282 (drew 254.2 W)</title></circle>
<circle cx="909.4" cy="478.8" r="6" fill="#fcfcfb"/>
<circle cx="909.4" cy="478.8" r="4" fill="#2a78d6"><title>cap 285 W: 0.2081 (drew 284.2 W)</title></circle>
<line x1="74" y1="603.9" x2="966" y2="603.9" stroke="#e1e0d9" stroke-width="1"/>
<text x="66" y="606.9" font-size="10" fill="#898781" text-anchor="end">150</text>
<line x1="74" y1="581.8" x2="966" y2="581.8" stroke="#e1e0d9" stroke-width="1"/>
<text x="66" y="584.8" font-size="10" fill="#898781" text-anchor="end">200</text>
<line x1="74" y1="559.7" x2="966" y2="559.7" stroke="#e1e0d9" stroke-width="1"/>
<text x="66" y="562.7" font-size="10" fill="#898781" text-anchor="end">250</text>
<line x1="74" y1="538" x2="74" y2="624" stroke="#c3c2b7" stroke-width="1"/>
<line x1="74" y1="624" x2="966" y2="624" stroke="#c3c2b7" stroke-width="1"/>
<line x1="130.6" y1="624" x2="130.6" y2="628" stroke="#c3c2b7" stroke-width="1"/>
<text x="130.6" y="640" font-size="10" fill="#898781" text-anchor="middle">120 W</text>
<line x1="225.0" y1="624" x2="225.0" y2="628" stroke="#c3c2b7" stroke-width="1"/>
<text x="225.0" y="640" font-size="10" fill="#898781" text-anchor="middle">140 W</text>
<line x1="319.4" y1="624" x2="319.4" y2="628" stroke="#c3c2b7" stroke-width="1"/>
<text x="319.4" y="640" font-size="10" fill="#898781" text-anchor="middle">160 W</text>
<line x1="390.2" y1="624" x2="390.2" y2="628" stroke="#c3c2b7" stroke-width="1"/>
<text x="390.2" y="640" font-size="10" fill="#898781" text-anchor="middle">175 W</text>
<line x1="413.8" y1="624" x2="413.8" y2="628" stroke="#c3c2b7" stroke-width="1"/>
<line x1="461.0" y1="624" x2="461.0" y2="628" stroke="#c3c2b7" stroke-width="1"/>
<text x="461.0" y="640" font-size="10" fill="#898781" text-anchor="middle">190 W</text>
<line x1="508.2" y1="624" x2="508.2" y2="628" stroke="#c3c2b7" stroke-width="1"/>
<text x="508.2" y="640" font-size="10" fill="#898781" text-anchor="middle">200 W</text>
<line x1="555.4" y1="624" x2="555.4" y2="628" stroke="#c3c2b7" stroke-width="1"/>
<text x="555.4" y="640" font-size="10" fill="#898781" text-anchor="middle">210 W</text>
<line x1="602.6" y1="624" x2="602.6" y2="628" stroke="#c3c2b7" stroke-width="1"/>
<text x="602.6" y="640" font-size="10" fill="#898781" text-anchor="middle">220 W</text>
<line x1="697.0" y1="624" x2="697.0" y2="628" stroke="#c3c2b7" stroke-width="1"/>
<text x="697.0" y="640" font-size="10" fill="#898781" text-anchor="middle">240 W</text>
<line x1="767.8" y1="624" x2="767.8" y2="628" stroke="#c3c2b7" stroke-width="1"/>
<text x="767.8" y="640" font-size="10" fill="#898781" text-anchor="middle">255 W</text>
<line x1="909.4" y1="624" x2="909.4" y2="628" stroke="#c3c2b7" stroke-width="1"/>
<text x="909.4" y="640" font-size="10" fill="#898781" text-anchor="middle">285 W</text>
<text x="74" y="528" font-size="11" fill="#52514e">watts actually drawn</text>
<line x1="74" y1="622.5" x2="966" y2="539.0" stroke="#e1e0d9" stroke-width="1"/>
<text x="903.4" y="536.3" font-size="9" fill="#898781" text-anchor="end">drawing exactly the cap</text>
<polyline points="130.6,617.4 225.0,608.5 319.4,599.4 390.2,593.0 413.8,590.8 461.0,586.4 508.2,582.0 555.4,577.7 602.6,573.2 697.0,566.0 767.8,566.0 909.4,566.0" fill="none" stroke="#eb6834" stroke-width="2" stroke-linejoin="round" stroke-linecap="round"/>
<circle cx="130.6" cy="617.4" r="6" fill="#fcfcfb"/>
<circle cx="130.6" cy="617.4" r="4" fill="#eb6834"><title>cap 120 W: drew 119.5 W</title></circle>
<circle cx="225.0" cy="608.5" r="6" fill="#fcfcfb"/>
<circle cx="225.0" cy="608.5" r="4" fill="#eb6834"><title>cap 140 W: drew 139.6 W</title></circle>
<circle cx="319.4" cy="599.4" r="6" fill="#fcfcfb"/>
<circle cx="319.4" cy="599.4" r="4" fill="#eb6834"><title>cap 160 W: drew 160.1 W</title></circle>
<circle cx="390.2" cy="593.0" r="6" fill="#fcfcfb"/>
<circle cx="390.2" cy="593.0" r="4" fill="#eb6834"><title>cap 175 W: drew 174.6 W</title></circle>
<circle cx="413.8" cy="590.8" r="6" fill="#fcfcfb"/>
<circle cx="413.8" cy="590.8" r="4" fill="#eb6834"><title>cap 180 W: drew 179.6 W</title></circle>
<circle cx="461.0" cy="586.4" r="6" fill="#fcfcfb"/>
<circle cx="461.0" cy="586.4" r="4" fill="#eb6834"><title>cap 190 W: drew 189.6 W</title></circle>
<circle cx="508.2" cy="582.0" r="6" fill="#fcfcfb"/>
<circle cx="508.2" cy="582.0" r="4" fill="#eb6834"><title>cap 200 W: drew 199.6 W</title></circle>
<circle cx="555.4" cy="577.7" r="6" fill="#fcfcfb"/>
<circle cx="555.4" cy="577.7" r="4" fill="#eb6834"><title>cap 210 W: drew 209.4 W</title></circle>
<circle cx="602.6" cy="573.2" r="6" fill="#fcfcfb"/>
<circle cx="602.6" cy="573.2" r="4" fill="#eb6834"><title>cap 220 W: drew 219.6 W</title></circle>
<circle cx="697.0" cy="566.0" r="6" fill="#fcfcfb"/>
<circle cx="697.0" cy="566.0" r="4" fill="#eb6834"><title>cap 240 W: drew 235.7 W</title></circle>
<circle cx="767.8" cy="566.0" r="6" fill="#fcfcfb"/>
<circle cx="767.8" cy="566.0" r="4" fill="#eb6834"><title>cap 255 W: drew 235.8 W</title></circle>
<circle cx="909.4" cy="566.0" r="6" fill="#fcfcfb"/>
<circle cx="909.4" cy="566.0" r="4" fill="#eb6834"><title>cap 285 W: drew 235.8 W</title></circle>
<polyline points="130.6,617.2 225.0,608.4 319.4,599.4 390.2,592.8 413.8,590.7 461.0,586.3 508.2,581.9 555.4,577.6 602.6,573.2 697.0,564.4 767.8,557.9 909.4,544.6" fill="none" stroke="#2a78d6" stroke-width="2" stroke-linejoin="round" stroke-linecap="round"/>
<circle cx="130.6" cy="617.2" r="6" fill="#fcfcfb"/>
<circle cx="130.6" cy="617.2" r="4" fill="#2a78d6"><title>cap 120 W: drew 119.8 W</title></circle>
<circle cx="225.0" cy="608.4" r="6" fill="#fcfcfb"/>
<circle cx="225.0" cy="608.4" r="4" fill="#2a78d6"><title>cap 140 W: drew 139.9 W</title></circle>
<circle cx="319.4" cy="599.4" r="6" fill="#fcfcfb"/>
<circle cx="319.4" cy="599.4" r="4" fill="#2a78d6"><title>cap 160 W: drew 160.1 W</title></circle>
<circle cx="390.2" cy="592.8" r="6" fill="#fcfcfb"/>
<circle cx="390.2" cy="592.8" r="4" fill="#2a78d6"><title>cap 175 W: drew 175.2 W</title></circle>
<circle cx="413.8" cy="590.7" r="6" fill="#fcfcfb"/>
<circle cx="413.8" cy="590.7" r="4" fill="#2a78d6"><title>cap 180 W: drew 180 W</title></circle>
<circle cx="461.0" cy="586.3" r="6" fill="#fcfcfb"/>
<circle cx="461.0" cy="586.3" r="4" fill="#2a78d6"><title>cap 190 W: drew 189.9 W</title></circle>
<circle cx="508.2" cy="581.9" r="6" fill="#fcfcfb"/>
<circle cx="508.2" cy="581.9" r="4" fill="#2a78d6"><title>cap 200 W: drew 199.8 W</title></circle>
<circle cx="555.4" cy="577.6" r="6" fill="#fcfcfb"/>
<circle cx="555.4" cy="577.6" r="4" fill="#2a78d6"><title>cap 210 W: drew 209.6 W</title></circle>
<circle cx="602.6" cy="573.2" r="6" fill="#fcfcfb"/>
<circle cx="602.6" cy="573.2" r="4" fill="#2a78d6"><title>cap 220 W: drew 219.5 W</title></circle>
<circle cx="697.0" cy="564.4" r="6" fill="#fcfcfb"/>
<circle cx="697.0" cy="564.4" r="4" fill="#2a78d6"><title>cap 240 W: drew 239.4 W</title></circle>
<circle cx="767.8" cy="557.9" r="6" fill="#fcfcfb"/>
<circle cx="767.8" cy="557.9" r="4" fill="#2a78d6"><title>cap 255 W: drew 254.2 W</title></circle>
<circle cx="909.4" cy="544.6" r="6" fill="#fcfcfb"/>
<circle cx="909.4" cy="544.6" r="4" fill="#2a78d6"><title>cap 285 W: drew 284.2 W</title></circle>
<text x="962" y="586.0" font-size="10" fill="#52514e" text-anchor="end">lolMiner stops responding to the cap here: 240/255/285 W all draw ~236 W</text>
<text x="319.4" y="351.0" font-size="10" fill="#52514e" text-anchor="middle">lolMiner's best 0.3036</text>
<text x="508.2" y="433.1" font-size="10" fill="#52514e" text-anchor="middle">MXBM's best 0.2611</text>
<line x1="88" y1="117" x2="110" y2="117" stroke="#2a78d6" stroke-width="2"/>
<circle cx="99" cy="117" r="6" fill="#fcfcfb"/>
<circle cx="99" cy="117" r="4" fill="#2a78d6"></circle>
<text x="118" y="121" font-size="11" fill="#52514e">MXBM</text>
<line x1="88" y1="133" x2="110" y2="133" stroke="#eb6834" stroke-width="2"/>
<circle cx="99" cy="133" r="6" fill="#fcfcfb"/>
<circle cx="99" cy="133" r="4" fill="#eb6834"></circle>
<text x="118" y="137" font-size="11" fill="#52514e">lolMiner 1.98a</text>
<text x="74" y="666" font-size="10" fill="#898781">x is the cap both miners were given -- the independent variable. What each actually drew is the bottom panel. All y axes are truncated.</text>
<text x="74" y="682" font-size="10" fill="#898781">Generated from the table in docs/performance.md by docs/tools/plot_power.py -- reproduce with benchmarks/compare_power.sh.</text>
</svg>
