<svg xmlns="http://www.w3.org/2000/svg" width="1000" height="470" viewBox="0 0 1000 470" font-family="DejaVu Sans, Helvetica, Arial, sans-serif">
<rect width="1000" height="470" fill="#fcfcfb"/>
<text x="62" y="30" font-size="15" font-weight="bold" fill="#0b0b0b">Where one BeamHash III solve spends its time and energy</text>
<text x="62" y="48" font-size="11" fill="#52514e">Board power through a single 29.3 ms solve. Segment width is time, height is power — so segment AREA is energy.</text>
<rect x="62" y="62" width="20" height="10" fill="#2a78d6"/>
<text x="88" y="71" font-size="10" fill="#52514e">compute (arithmetic-bound)</text>
<rect x="301.2" y="62" width="20" height="10" fill="#eb6834"/>
<text x="327.2" y="71" font-size="10" fill="#52514e">latency (latency-bound)</text>
<rect x="518.8" y="62" width="20" height="10" fill="#1baf7a"/>
<text x="544.8" y="71" font-size="10" fill="#52514e">DRAM (bandwidth-bound)</text>
<line x1="62" y1="296" x2="972" y2="296" stroke="#e1e0d9" stroke-width="1"/>
<text x="56" y="299" font-size="10" fill="#898781" text-anchor="end">0</text>
<line x1="62" y1="233.5" x2="972" y2="233.5" stroke="#e1e0d9" stroke-width="1"/>
<text x="56" y="236.5" font-size="10" fill="#898781" text-anchor="end">100</text>
<line x1="62" y1="171" x2="972" y2="171" stroke="#e1e0d9" stroke-width="1"/>
<text x="56" y="174" font-size="10" fill="#898781" text-anchor="end">200</text>
<line x1="62" y1="108.5" x2="972" y2="108.5" stroke="#e1e0d9" stroke-width="1"/>
<text x="56" y="111.5" font-size="10" fill="#898781" text-anchor="end">300</text>
<text x="14" y="196" font-size="11" fill="#52514e" text-anchor="middle" transform="rotate(-90 14 196)">board power (W)</text>
<rect x="63" y="119.2" width="80.6" height="176.8" fill="#2a78d6"><title>entry_scatter
2.66 ms (9.1 % of the solve)
282.9 W · 0.27 GB DRAM
bound by compute (SipHash)</title></rect>
<rect x="145.6" y="117.8" width="154.0" height="178.2" fill="#eb6834"><title>round 1
5.02 ms (17.2 % of the solve)
285.1 W · 0.81 GB DRAM
bound by latency</title></rect>
<rect x="301.6" y="119.2" width="253.1" height="176.8" fill="#eb6834"><title>round 2
8.21 ms (28.1 % of the solve)
282.8 W · 2.68 GB DRAM
bound by latency</title></rect>
<rect x="556.7" y="120.4" width="259.6" height="175.6" fill="#1baf7a"><title>round 3
8.42 ms (28.8 % of the solve)
281.0 W · 4.29 GB DRAM
bound by DRAM</title></rect>
<rect x="818.3" y="118.8" width="128.5" height="177.2" fill="#1baf7a"><title>round 4
4.20 ms (14.4 % of the solve)
283.5 W · 2.42 GB DRAM
bound by DRAM</title></rect>
<rect x="948.8" y="117.7" width="22.2" height="178.3" fill="#1baf7a"><title>terminal
0.78 ms (2.7 % of the solve)
285.3 W · 0.27 GB DRAM
bound by DRAM</title></rect>
<line x1="62" y1="117.9" x2="972" y2="117.9" stroke="#52514e" stroke-width="1.2" stroke-dasharray="6 4"/>
<text x="970" y="111.9" font-size="10" fill="#52514e" text-anchor="end">board limit 285 W</text>
<line x1="62" y1="296" x2="972" y2="296" stroke="#c3c2b7" stroke-width="1"/>
<line x1="62" y1="96" x2="62" y2="296" stroke="#c3c2b7" stroke-width="1"/>
<line x1="103.3" y1="298" x2="103.3" y2="308" stroke="#c3c2b7" stroke-width="1"/>
<text x="4" y="316" font-size="10" fill="#52514e" text-anchor="start">entry_scatter · 2.66 ms · 9.1 %</text>
<line x1="222.6" y1="298" x2="222.6" y2="326" stroke="#c3c2b7" stroke-width="1"/>
<text x="222.6" y="334" font-size="10" fill="#52514e" text-anchor="middle">round 1 · 5.02 ms · 17.2 %</text>
<line x1="428.1" y1="298" x2="428.1" y2="308" stroke="#c3c2b7" stroke-width="1"/>
<text x="428.1" y="316" font-size="10" fill="#52514e" text-anchor="middle">round 2 · 8.21 ms · 28.1 %</text>
<line x1="686.5" y1="298" x2="686.5" y2="308" stroke="#c3c2b7" stroke-width="1"/>
<text x="686.5" y="316" font-size="10" fill="#52514e" text-anchor="middle">round 3 · 8.42 ms · 28.8 %</text>
<line x1="882.5" y1="298" x2="882.5" y2="308" stroke="#c3c2b7" stroke-width="1"/>
<text x="882.5" y="316" font-size="10" fill="#52514e" text-anchor="middle">round 4 · 4.20 ms · 14.4 %</text>
<line x1="959.9" y1="298" x2="959.9" y2="326" stroke="#c3c2b7" stroke-width="1"/>
<text x="996" y="334" font-size="10" fill="#52514e" text-anchor="end">terminal · 0.78 ms · 2.7 %</text>
<line x1="300.6" y1="356" x2="817.3" y2="356" stroke="#898781" stroke-width="1"/>
<line x1="300.6" y1="356" x2="300.6" y2="351" stroke="#898781" stroke-width="1"/>
<line x1="817.3" y1="356" x2="817.3" y2="351" stroke="#898781" stroke-width="1"/>
<text x="558.9" y="370" font-size="11" font-weight="bold" fill="#0b0b0b" text-anchor="middle">round 2 + round 3 = 57 % of the solve</text>
<text x="62" y="440" font-size="10" fill="#52514e">Every stage draws the board limit — there is no single kernel to fix for power. The one dip is round 3 at 281.0 W, the most bandwidth-bound stage (4.29 GB).</text>
<text x="62" y="456" font-size="10" fill="#898781">Per-stage figures from benchmarks/stage_power.sh, which replays one stage many times inside a real solve; they sum to 29.29 ms against the table's 29.30 ms total, a -0.0 % attribution residual.</text>
</svg>
